#N canvas 0 38 1512 858 12;
#X obj 655 773 netsend -u -b;
#X obj 622 597 noteout;
#X obj 761 683 oscparse;
#X listbox 761 709 20 0 0 0 - - - 0;
#X obj 566 631 oscformat -f f x;
#X msg 709 742 connect localhost 12345;
#X obj 593 557 makenote 60 5000;
#X obj 756 631 oscformat -f f y;
#X msg 280 307 71;
#X obj 165 194 random 13;
#X obj 885 160 random 13;
#X obj 887 208 sel 0 1 2 3 4 5 6 7 8 9 10 11 12;
#X obj 161 225 sel 0 1 2 3 4 5 6 7 8 9 10 11 12;
#X msg 53 275 90;
#X msg 90 277 50;
#X msg 129 282 60;
#X msg 175 287 55;
#X msg 210 286 57;
#X msg 244 295 63;
#X msg 314 300 65;
#X msg 353 298 75;
#X msg 389 298 88;
#X msg 425 285 84;
#X msg 458 272 80;
#X msg 498 260 77;
#X msg 831 247 90;
#X msg 864 253 50;
#X msg 897 261 60;
#X msg 924 271 55;
#X msg 954 276 57;
#X msg 985 275 63;
#X msg 1016 274 71;
#X msg 1047 271 65;
#X msg 1078 270 75;
#X msg 1110 270 88;
#X msg 1142 269 83;
#X msg 1173 268 80;
#X msg 1206 267 77;
#X msg 1240 265 68;
#X msg 532 242 68;
#X obj 972 5 tgl 19 0 empty empty empty 0 -10 0 12 #fcfcfc #000000 #000000 0 1;
#X obj 972 29 sel 0;
#X obj 953 51 bng 19 250 50 0 empty empty empty 0 -10 0 12 #fcfcfc #000000 #000000;
#X obj 1107 8 metro 1 10 permin;
#X floatatom 689 16 5 0 0 0 - - - 0;
#X floatatom 686 68 5 0 0 0 - - - 0;
#X msg 681 95 tempo \$1 permin;
#X obj 804 129 metro 1 120 permin;
#X obj 531 155 bng 19 250 50 0 empty empty empty 0 -10 0 12 #fcfcfc #000000 #000000;
#X obj 690 43 min 120;
#X obj 1108 43 i 10;
#X obj 1026 64 + 1;
#X obj 1108 85 + 7;
#X connect 2 0 3 0;
#X connect 4 0 0 0;
#X connect 5 0 0 0;
#X connect 6 0 1 0;
#X connect 6 0 4 0;
#X connect 6 1 1 1;
#X connect 6 1 7 0;
#X connect 7 0 0 0;
#X connect 7 0 2 0;
#X connect 8 0 6 0;
#X connect 9 0 12 0;
#X connect 10 0 11 0;
#X connect 11 0 25 0;
#X connect 11 1 26 0;
#X connect 11 2 27 0;
#X connect 11 3 28 0;
#X connect 11 4 29 0;
#X connect 11 5 30 0;
#X connect 11 6 31 0;
#X connect 11 7 32 0;
#X connect 11 8 33 0;
#X connect 11 9 34 0;
#X connect 11 10 35 0;
#X connect 11 11 36 0;
#X connect 11 12 37 0;
#X connect 11 13 38 0;
#X connect 12 0 13 0;
#X connect 12 1 14 0;
#X connect 12 2 15 0;
#X connect 12 3 16 0;
#X connect 12 4 17 0;
#X connect 12 5 18 0;
#X connect 12 6 8 0;
#X connect 12 7 19 0;
#X connect 12 8 20 0;
#X connect 12 9 21 0;
#X connect 12 10 22 0;
#X connect 12 11 23 0;
#X connect 12 12 24 0;
#X connect 12 13 39 0;
#X connect 13 0 6 0;
#X connect 14 0 6 0;
#X connect 15 0 6 0;
#X connect 16 0 6 0;
#X connect 17 0 6 0;
#X connect 18 0 6 0;
#X connect 19 0 6 0;
#X connect 20 0 6 0;
#X connect 21 0 6 0;
#X connect 22 0 6 0;
#X connect 23 0 6 0;
#X connect 24 0 6 0;
#X connect 25 0 6 1;
#X connect 26 0 6 1;
#X connect 27 0 6 1;
#X connect 28 0 6 1;
#X connect 29 0 6 1;
#X connect 30 0 6 1;
#X connect 31 0 6 1;
#X connect 32 0 6 1;
#X connect 33 0 6 1;
#X connect 34 0 6 1;
#X connect 35 0 6 1;
#X connect 36 0 6 1;
#X connect 37 0 6 1;
#X connect 38 0 6 1;
#X connect 39 0 6 0;
#X connect 40 0 41 0;
#X connect 40 0 43 0;
#X connect 40 0 47 0;
#X connect 41 0 42 0;
#X connect 42 0 51 0;
#X connect 43 0 50 0;
#X connect 44 0 49 0;
#X connect 45 0 46 0;
#X connect 46 0 47 0;
#X connect 47 0 48 0;
#X connect 48 0 9 0;
#X connect 48 0 10 0;
#X connect 49 0 45 0;
#X connect 50 0 52 0;
#X connect 51 0 50 0;
#X connect 52 0 44 0;
#X connect 52 0 50 1;
